<?xml version="1.0" encoding="UTF-8" standalone="no"?>
<svg
   width="21.674706"
   height="24.000002"
   version="1.1"
   viewBox="0 0 16.256029 18.000002"
   id="svg2846"
   sodipodi:docname="bin-out.svg"
   inkscape:version="1.1.2 (b8e25be8, 2022-02-05)"
   xmlns:inkscape="http://www.inkscape.org/namespaces/inkscape"
   xmlns:sodipodi="http://sodipodi.sourceforge.net/DTD/sodipodi-0.dtd"
   xmlns="http://www.w3.org/2000/svg"
   xmlns:svg="http://www.w3.org/2000/svg">
  <defs
     id="defs2850" />
  <sodipodi:namedview
     id="namedview2848"
     pagecolor="#ffffff"
     bordercolor="#666666"
     borderopacity="1.0"
     inkscape:pageshadow="2"
     inkscape:pageopacity="0.0"
     inkscape:pagecheckerboard="0"
     inkscape:document-units="pt"
     showgrid="false"
     inkscape:zoom="0.86405635"
     inkscape:cx="-314.21562"
     inkscape:cy="328.1036"
     inkscape:window-width="1830"
     inkscape:window-height="1027"
     inkscape:window-x="41"
     inkscape:window-y="25"
     inkscape:window-maximized="0"
     inkscape:current-layer="g20162"
     inkscape:lockguides="true"
     showguides="false"
     units="px" />
  <g
     id="g2844"
     transform="translate(-175.00028,-96.253229)" />
  <g
     inkscape:groupmode="layer"
     id="g20162"
     inkscape:label="arrow"
     style="display:inline"
     transform="translate(-175.00028,-96.253229)">
    <path
       id="path20160"
       style="stroke-width:0.362763"
       d="m 190.0515,103.71371 -0.71899,-0.66016 c -0.094,-0.0719 -0.13665,-0.28184 0.0292,-0.44215 0.1769,-0.14926 0.35421,-0.1637 0.46477,-0.0642 l 1.22971,1.11138 c 0.2593,0.2443 0.26332,0.55876 0.0312,0.77368 l -1.2277,1.13971 c -0.12715,0.094 -0.31595,0.10176 -0.49837,-0.0475 -0.13268,-0.12715 -0.14485,-0.35381 -0.0232,-0.4699 l 0.71346,-0.64911 h -3.35821 c -0.2156,0 -0.37039,-0.13047 -0.37039,-0.36818 0,-0.20454 0.14926,-0.32358 0.34828,-0.32358 m 1.57385,-1.39241 0.15166,-3.950423 h 0.36806 c 0.19522,0 0.35294,-0.15772 0.35294,-0.352937 v -0.352938 c 0,-0.77852 -0.63323,-1.411751 -1.41175,-1.411751 -3.76467,3.4e-5 -7.52933,-5.2e-5 -11.29399,1.2e-5 -0.77852,0 -1.41175,0.633231 -1.41175,1.411751 v 0.352938 c 0,0.195217 0.15819,0.352937 0.35294,0.352937 h 0.36806 l 0.48701,10.956801 c 0.006,0.12526 0.0769,0.23823 0.18782,0.29684 l 0.32079,0.16938 c -0.61117,0.44999 -1.01077,1.17272 -1.01077,1.98876 0,1.36197 1.1083,2.47056 2.47056,2.47056 0.74323,0 1.40893,-0.33135 1.86238,-0.85241 l 0.2855,0.6427 c 0.0569,0.12779 0.18325,0.21002 0.32269,0.20972 l 6.41509,-0.0137 c 0.52993,-0.0952 0.55278,-0.35473 0.58807,-0.58271 l 0.41801,-7.78736 c 0.005,-0.21627 -0.0833,-0.35821 -0.33805,-0.37299 -0.24878,-0.009 -0.35829,0.1534 -0.37111,0.36446 l -0.45654,7.64203 -6.02132,0.0112 c 0,0 -0.26869,-0.55894 -0.39887,-0.8531 0.10478,-0.27352 0.1645,-0.56849 0.1645,-0.87839 0,-1.36197 -1.10831,-2.47056 -2.47057,-2.47056 -0.23476,0 -0.46136,0.035 -0.67655,0.0964 l -0.59543,-0.3145 -0.47677,-10.72285 h 3.1605 v -0.705874 h -3.88231 c 0,-0.389334 0.31654,-0.705876 0.70587,-0.705876 h 11.29401 c 0.38933,0 0.70588,0.316542 0.70588,0.705876 h -8.82345 V 98.3712 h 8.10184 l -0.15615,3.9311 c -0.006,0.18908 0.0953,0.31253 0.34552,0.32921 0.26693,0 0.35456,-0.13781 0.36568,-0.31021 z m -8.30371,9.46119 c 0,0.9731 -0.79159,1.76468 -1.76469,1.76468 -0.9731,0 -1.76469,-0.79158 -1.76469,-1.76468 0,-0.9731 0.79159,-1.76469 1.76469,-1.76469 0.9731,0 1.76469,0.79159 1.76469,1.76469 z m -1.76469,1.05869 c 0.58378,0 1.05881,-0.47504 1.05881,-1.05881 0,-0.58378 -0.47503,-1.05882 -1.05881,-1.05882 -0.58378,0 -1.05881,0.47504 -1.05881,1.05882 0,0.58377 0.47503,1.05881 1.05881,1.05881 z m 0,-1.41175 c 0.19443,0 0.35294,0.15819 0.35294,0.35294 0,0.19474 -0.15851,0.35293 -0.35294,0.35293 -0.19443,0 -0.35294,-0.15819 -0.35294,-0.35293 0,-0.19475 0.15851,-0.35294 0.35294,-0.35294 z" />
  </g>
</svg>
