<?xml version="1.0" encoding="UTF-8" standalone="no"?>
<svg
   width="21.674788"
   height="24.000002"
   version="1.1"
   viewBox="0 0 16.25609 18.000002"
   id="svg2846"
   sodipodi:docname="bin-recycle-in.svg"
   inkscape:version="1.1.2 (b8e25be8, 2022-02-05)"
   xmlns:inkscape="http://www.inkscape.org/namespaces/inkscape"
   xmlns:sodipodi="http://sodipodi.sourceforge.net/DTD/sodipodi-0.dtd"
   xmlns="http://www.w3.org/2000/svg"
   xmlns:svg="http://www.w3.org/2000/svg">
  <defs
     id="defs2850" />
  <sodipodi:namedview
     id="namedview2848"
     pagecolor="#ffffff"
     bordercolor="#666666"
     borderopacity="1.0"
     inkscape:pageshadow="2"
     inkscape:pageopacity="0.0"
     inkscape:pagecheckerboard="0"
     inkscape:document-units="pt"
     showgrid="false"
     inkscape:zoom="13.824902"
     inkscape:cx="-16.962146"
     inkscape:cy="18.264145"
     inkscape:window-width="1830"
     inkscape:window-height="1027"
     inkscape:window-x="41"
     inkscape:window-y="25"
     inkscape:window-maximized="0"
     inkscape:current-layer="g20162"
     inkscape:lockguides="true"
     showguides="false"
     units="px" />
  <g
     id="g2844"
     transform="translate(-175.00012,-96.253229)" />
  <g
     inkscape:groupmode="layer"
     id="g20162"
     inkscape:label="icon"
     style="display:inline"
     transform="translate(-175.00012,-96.253229)">
    <path
       id="path20160"
       style="stroke-width:0.362763"
       d="m 187.5277,103.71371 0.71899,-0.66016 c 0.094,-0.0719 0.13665,-0.28184 -0.0292,-0.44215 -0.1769,-0.14926 -0.35421,-0.1637 -0.46477,-0.0642 l -1.22971,1.11138 c -0.2593,0.2443 -0.26332,0.55876 -0.0312,0.77368 l 1.2277,1.13971 c 0.12715,0.094 0.31594,0.10176 0.49837,-0.0475 0.13268,-0.12715 0.14485,-0.35381 0.0232,-0.4699 l -0.71346,-0.64911 h 3.35821 c 0.2156,0 0.37038,-0.13047 0.37038,-0.36818 0,-0.20454 -0.14925,-0.32358 -0.34827,-0.32358 m -2.62798,-2.70533 0.11665,-2.637502 h 0.36806 c 0.19522,0 0.35294,-0.157721 0.35294,-0.352938 v -0.352938 c 0,-0.77852 -0.63323,-1.411751 -1.41175,-1.411751 -3.76467,3.5e-5 -7.52933,-5.2e-5 -11.29399,1.3e-5 -0.77852,0 -1.41175,0.63323 -1.41175,1.41175 v 0.352938 c 0,0.195217 0.15819,0.352938 0.35294,0.352938 h 0.36806 l 0.48701,10.9568 c 0.006,0.12526 0.0769,0.23823 0.18782,0.29685 l 0.32079,0.16937 c -0.61117,0.44999 -1.01077,1.17272 -1.01077,1.98876 0,1.36197 1.1083,2.47056 2.47056,2.47056 0.74323,0 1.40893,-0.33135 1.86238,-0.85241 l 0.2855,0.6427 c 0.0569,0.12779 0.18325,0.21002 0.32269,0.20972 l 6.41509,-0.0137 c 0.52993,-0.0952 0.55278,-0.35473 0.58807,-0.58271 l 0.33048,-6.63198 c 0.005,-0.21627 -0.0832,-0.35821 -0.33805,-0.37299 -0.24878,-0.009 -0.35829,0.15339 -0.37111,0.36445 l -0.36901,6.48666 -6.02132,0.0112 c 0,0 -0.26869,-0.55894 -0.39887,-0.8531 0.10478,-0.27352 0.1645,-0.56849 0.1645,-0.87839 0,-1.36197 -1.10831,-2.47056 -2.47057,-2.47056 -0.23476,0 -0.46136,0.035 -0.67655,0.0964 l -0.59543,-0.3145 -0.47677,-10.722849 h 3.1605 v -0.705875 h -3.88231 c 0,-0.389333 0.31654,-0.705876 0.70587,-0.705876 h 11.29401 c 0.38933,0 0.70588,0.316543 0.70588,0.705876 h -8.82345 v 0.705875 h 8.10184 l -0.12114,2.618179 c -0.006,0.18908 0.0953,0.31252 0.34552,0.3292 0.26694,0 0.35456,-0.13781 0.36568,-0.3102 z m -8.33872,10.77411 c 0,0.9731 -0.79159,1.76469 -1.76469,1.76469 -0.9731,0 -1.76469,-0.79159 -1.76469,-1.76469 0,-0.9731 0.79159,-1.76469 1.76469,-1.76469 0.9731,0 1.76469,0.79159 1.76469,1.76469 z m -1.76469,1.05869 c 0.58378,0 1.05881,-0.47504 1.05881,-1.05881 0,-0.58378 -0.47503,-1.05882 -1.05881,-1.05882 -0.58378,0 -1.05881,0.47504 -1.05881,1.05882 0,0.58377 0.47503,1.05881 1.05881,1.05881 z m 0,-1.41175 c 0.19443,0 0.35294,0.15819 0.35294,0.35294 0,0.19474 -0.15851,0.35293 -0.35294,0.35293 -0.19443,0 -0.35294,-0.15819 -0.35294,-0.35293 0,-0.19475 0.15851,-0.35294 0.35294,-0.35294 z m 4.82335,-10.08555 0.31339,-0.20893 c 0.16228,-0.1084 0.20609,-0.32709 0.0977,-0.48955 -0.10793,-0.16229 -0.3271,-0.20578 -0.48956,-0.0977 l -1.05881,0.70588 c -0.16197,0.1084 -0.20578,0.32709 -0.0977,0.48955 l 0.70587,1.05881 c 0.0681,0.10194 0.18041,0.15693 0.29433,0.15693 0.0671,0 0.13519,-0.0194 0.19554,-0.0592 0.16228,-0.1084 0.20609,-0.3271 0.0977,-0.48956 l -0.26438,-0.39642 c 1.00427,0.31386 1.73552,1.25089 1.73552,2.35698 0,0.19522 0.15772,0.35294 0.35294,0.35294 0.19522,0 0.35294,-0.15772 0.35294,-0.35294 0,-1.42341 -0.94269,-2.62481 -2.23549,-3.02675 z m -2.53026,5.77769 c 0.47866,0.27841 1.02807,0.42558 1.58931,0.42558 0.8078,0 1.57261,-0.3137 2.15037,-0.8491 l 0.0244,0.37689 c 0.012,0.18671 0.16764,0.3304 0.35183,0.3304 0.007,0 0.0156,-3.2e-4 0.023,-6.3e-4 0.19443,-0.0128 0.34206,-0.18072 0.32962,-0.37484 l -0.0819,-1.26993 c -0.0123,-0.19443 -0.18388,-0.33986 -0.37484,-0.32962 l -1.26993,0.0819 c -0.19443,0.0128 -0.34207,0.18073 -0.32962,0.37484 0.0123,0.19412 0.18466,0.33986 0.37484,0.32962 l 0.46874,-0.0304 c -0.4489,0.4128 -1.04115,0.65497 -1.66651,0.65497 -0.4366,0 -0.86327,-0.11407 -1.2342,-0.32993 -0.16796,-0.0977 -0.38429,-0.0413 -0.48245,0.12747 -0.0982,0.16859 -0.041,0.38492 0.12731,0.48278 z m -2.31326,-2.05954 c -0.0865,0.17473 -0.0148,0.3865 0.15993,0.47302 l 1.14073,0.56405 c 0.0504,0.0246 0.10368,0.0362 0.1563,0.0362 0.13031,0 0.25525,-0.072 0.31654,-0.19664 l 0.56406,-1.14073 c 0.0865,-0.17474 0.0148,-0.3865 -0.15992,-0.47302 -0.17584,-0.0865 -0.38682,-0.0145 -0.47302,0.15992 l -0.20971,0.42385 c -0.0397,-0.17521 -0.063,-0.3553 -0.063,-0.53808 0,-0.88028 0.4733,-1.70007 1.23528,-2.13985 0.16907,-0.0974 0.22658,-0.31339 0.1292,-0.48213 -0.0977,-0.16906 -0.31339,-0.22736 -0.48213,-0.1292 -0.97972,0.56551 -1.58822,1.61972 -1.58822,2.75118 0,0.23619 0.0282,0.46939 0.0808,0.69644 l -0.33387,-0.16513 c -0.17505,-0.0862 -0.38681,-0.0147 -0.47302,0.16008 z" />
  </g>
</svg>
