<?xml version="1.0" encoding="UTF-8" standalone="no"?>
<svg
   width="24"
   height="24"
   version="1.1"
   viewBox="0 0 24 24"
   sodipodi:docname="bin-in.svg"
   id="svg826"
   inkscape:version="1.1.2 (b8e25be8, 2022-02-05)"
   xmlns:inkscape="http://www.inkscape.org/namespaces/inkscape"
   xmlns:sodipodi="http://sodipodi.sourceforge.net/DTD/sodipodi-0.dtd"
   xmlns="http://www.w3.org/2000/svg"
   xmlns:svg="http://www.w3.org/2000/svg">
  <defs
     id="defs830" />
  <sodipodi:namedview
     id="namedview828"
     pagecolor="#ffffff"
     bordercolor="#666666"
     borderopacity="1.0"
     inkscape:pageshadow="2"
     inkscape:pageopacity="0.0"
     inkscape:pagecheckerboard="0"
     showgrid="false"
     inkscape:zoom="28.777733"
     inkscape:cx="13.361024"
     inkscape:cy="14.577243"
     inkscape:window-width="1796"
     inkscape:window-height="969"
     inkscape:window-x="44"
     inkscape:window-y="25"
     inkscape:window-maximized="0"
     inkscape:current-layer="svg826" />
  <path
     id="path1794-5-2"
     style="color:#000000;fill:#000000;-inkscape-stroke:none"
     d="m 4.023366,2.724724 c -0.92777,0 -1.6875,0.757773 -1.6875,1.685546 v 0.353516 c 0,0.343912 0.28555,0.628906 0.62891,0.628906 h 0.10351 l 0.47656,10.693355 v 0.002 c 0.0106,0.22087 0.13675,0.42115 0.33399,0.52539 l 0.0234,0.0117 c -0.50161,0.49718 -0.85938,1.14405 -0.85938,1.90429 0,1.51129 1.23255,2.7461 2.74414,2.7461 0.680349,0 1.270019,-0.29292 1.75,-0.70508 l 0.14649,0.33203 c 0.100639,0.22603 0.328159,0.37358 0.576169,0.37305 l 6.439449,-0.0137 0.0234,-0.006 c 0.30713,-0.0552 0.5284,-0.17604 0.65429,-0.34961 0.1259,-0.17357 0.13965,-0.35368 0.15625,-0.46094 l 0.002,-0.0137 0.301155,-6.000972 v -0.006 c 0.003,-0.14696 -0.024,-0.30953 -0.13477,-0.44336 -0.11081,-0.13383 -0.28648,-0.19875 -0.46289,-0.20898 l -0.002,-0.002 h -0.004 c -0.18562,-0.007 -0.3703,0.0623 -0.48632,0.18946 -0.11603,0.12718 -0.1609,0.28498 -0.16993,0.43359 l -0.322635,5.581052 -5.585939,0.01 c -0.0627,-0.13106 -0.18161,-0.38355 -0.28906,-0.62109 0.0864,-0.26479 0.154291,-0.53919 0.154291,-0.83399 0,-1.51129 -1.2345,-2.74609 -2.74609,-2.74609 -0.217221,0 -0.42205,0.042 -0.62305,0.0898 L 4.782945,15.669877 4.327876,5.392532 h 2.595699 0.55078 7.539059 L 14.88819,8.2757898 c -0.005,0.1455197 0.0369,0.3127487 0.15429,0.4316397 0.11736,0.11889 0.27966,0.17046 0.44727,0.18164 h 0.01 0.008 c 0.18083,0 0.35406,-0.0527 0.47265,-0.16992 0.1186,-0.117211 0.15973,-0.26864 0.16797,-0.3964897 l -0.43945,-0.0156 0.43945,0.008 v -0.01 -0.002 L 16.273604,5.392462 h 0.10351 c 0.34348,0 0.62696,-0.285436 0.62696,-0.628906 V 4.41004 c 0,-0.927773 -0.75973,-1.685546 -1.6875,-1.685546 -3.76466,3.5e-5 -7.528309,-6.5e-5 -11.292969,0 z m 0,0.550781 c 3.764649,-6.5e-5 7.528298,3.5e-5 11.292968,0 0.62926,0 1.13672,0.505501 1.13672,1.134765 v 0.353516 c 0,0.04696 -0.0292,0.07813 -0.0762,0.07813 h -0.63281 L 15.59928,8.2857198 c -5.1e-4,0.008 7.4e-4,0.002 0,0.008 -0.003,0.0251 -0.0102,0.0394 -0.006,0.0351 0.005,-0.005 -0.01,0.008 -0.0801,0.01 -0.0543,-0.007 -0.083,-0.0225 -0.0781,-0.0176 0.005,0.005 0.001,0.008 0.002,-0.0254 v -0.002 L 15.587704,4.842206 H 7.474426 V 4.687909 h 8.824218 v -0.27539 c 0,-0.538529 -0.4439,-0.982422 -0.98242,-0.982422 H 4.023256 c -0.53852,0 -0.98242,0.443898 -0.98242,0.982422 v 0.27539 h 3.88281 v 0.154297 h -3.17188 l 0.4961,11.167961 0.83203,0.43946 0.10742,-0.0293 c 0.1927,-0.055 0.39221,-0.0859 0.59961,-0.0859 1.21293,0 2.195309,0.98267 2.195309,2.19531 0,0.27455 -0.0529,0.5349 -0.146479,0.77931 l -0.0391,0.10547 0.0449,0.10351 c 0.13468,0.30433 0.40234,0.86132 0.40234,0.86132 l 0.0762,0.15625 6.453129,-0.0117 0.353895,-6.096672 c 0.004,-0.0624 0.0213,-0.0912 0.0254,-0.0957 0.004,-0.004 0.009,-0.0102 0.0547,-0.01 0.0784,0.005 0.0745,0.0168 0.0703,0.0117 -0.004,-0.005 0.009,0.0108 0.008,0.0801 l -0.299205,5.959962 c -0.0172,0.1085 -0.0313,0.17399 -0.0566,0.20899 -0.0261,0.036 -0.0884,0.0892 -0.29688,0.1289 l -6.374999,0.0137 c -0.0309,6e-5 -0.0572,-0.0173 -0.0703,-0.0469 l -0.460941,-1.03711 -0.2832,0.32617 c -0.40381,0.46402 -0.99483,0.75782 -1.656249,0.75782 -1.21293,0 -2.19531,-0.98267 -2.19531,-2.19532 0,-0.72618 0.3564,-1.36705 0.900389,-1.76757 l 0.35351,-0.25977 -0.70898,-0.375 c -0.0241,-0.0127 -0.041,-0.0357 -0.043,-0.0644 v -0.002 L 3.595706,4.842046 h -0.63085 c -0.0461,0 -0.0781,-0.0316 -0.0781,-0.07813 V 4.4104 c 0,-0.629264 0.50745,-1.134765 1.13672,-1.134765 z m 0,0.705078 h 11.292968 c 0.0869,0 0.089,0.113008 0.15625,0.15625 H 7.474535 6.923755 3.867116 c 0.0672,-0.04324 0.0693,-0.15625 0.15625,-0.15625 z m 13.03947,4.8732551 c 0.191763,0.02353 0.36738,0.11245 0.523055,0.24375 l 0.0078,0.0078 0.0104,0.0104 c 0.349895,0.338208 0.352768,0.848705 0.0052,1.1146459 l 0.02535,-0.02028 -0.256451,0.236132 h 3.473444 c 0.200694,0 0.403975,0.06331 0.561132,0.203125 0.157144,0.139801 0.251368,0.356381 0.251368,0.576367 -1.3e-5,0.23218 -0.08684,0.460655 -0.248833,0.614458 -0.16198,0.15379 -0.379288,0.222953 -0.591604,0.223431 h -3.440424 l 0.246285,0.223444 0.0026,0.0026 c 0.335062,0.319748 0.290043,0.822627 -0.02795,1.127347 l -0.0104,0.0104 -0.013,0.0104 c -0.335504,0.274521 -0.792844,0.288353 -1.086722,0.07111 l -0.01521,-0.013 -1.609764,-1.492959 c -0.215475,-0.199511 -0.344357,-0.48009 -0.335153,-0.764257 0.0091,-0.28418 0.149591,-0.553552 0.373243,-0.764269 l 0.0026,-0.0026 1.599611,-1.4472639 0.0026,-0.0026 c 0.148967,-0.134069 0.359216,-0.191074 0.550979,-0.167583 z M 5.786985,16.488397 c -1.12237,0 -2.03906,0.91864 -2.03906,2.04101 0,1.12237 0.91669,2.03907 2.03906,2.03907 1.12237,0 2.04102,-0.9167 2.04102,-2.03907 0,-1.12237 -0.91865,-2.04101 -2.04102,-2.04101 z m 0,0.55078 c 0.82383,0 1.49024,0.66641 1.49024,1.49023 0,0.82383 -0.66641,1.48828 -1.49024,1.48828 -0.82383,0 -1.48828,-0.66445 -1.48828,-1.48828 0,-0.82382 0.66445,-1.49023 1.48828,-1.49023 z m 0,0.15625 c -0.7331,0 -1.33398,0.60089 -1.33398,1.33398 0,0.73309 0.60088,1.33399 1.33398,1.33399 0.7331,0 1.33594,-0.6009 1.33594,-1.33399 0,-0.73309 -0.60284,-1.33398 -1.33594,-1.33398 z m 0,0.54883 c 0.43446,0 0.78516,0.35069 0.78516,0.78515 0,0.43445 -0.3507,0.78321 -0.78516,0.78321 -0.43446,0 -0.7832,-0.34876 -0.7832,-0.78321 0,-0.43446 0.34874,-0.78515 0.7832,-0.78515 z m 0,0.15625 c -0.34373,0 -0.62695,0.2848 -0.62695,0.6289 0,0.3441 0.28322,0.62696 0.62695,0.62696 0.34373,0 0.62891,-0.28286 0.62891,-0.62696 0,-0.3441 -0.28518,-0.6289 -0.62891,-0.6289 z m 0,0.55078 c 0.0451,0 0.0781,0.0327 0.0781,0.0781 0,0.0454 -0.033,0.0762 -0.0781,0.0762 -0.0451,0 -0.0762,-0.0308 -0.0762,-0.0762 0,-0.0454 0.031,-0.0781 0.0762,-0.0781 z M 15.87371,8.3042698 16.008024,5.117076 h 0.36806 c 0.19522,0 0.35294,-0.157721 0.35294,-0.352938 V 4.4112 c 0,-0.77852 -0.63323,-1.411751 -1.41175,-1.411751 -3.76467,3.5e-5 -7.529329,-5.2e-5 -11.293988,1.3e-5 -0.77852,0 -1.41175,0.63323 -1.41175,1.41175 V 4.76415 c 0,0.195217 0.15819,0.352938 0.35294,0.352938 h 0.36806 l 0.48701,10.956799 c 0.006,0.12526 0.0769,0.23823 0.18782,0.29685 l 0.32079,0.16937 c -0.61117,0.44999 -1.010771,1.17272 -1.010771,1.98876 0,1.36197 1.1083,2.47056 2.470561,2.47056 0.743229,0 1.408929,-0.33135 1.862379,-0.85241 l 0.2855,0.6427 c 0.0569,0.12779 0.18325,0.21002 0.32269,0.20972 l 6.415089,-0.0137 c 0.52993,-0.0952 0.55278,-0.35473 0.58807,-0.58271 l 0.299245,-5.983642 c 0.005,-0.21627 -0.0833,-0.35821 -0.33805,-0.37299 -0.24878,-0.009 -0.35829,0.1534 -0.37111,0.36446 l -0.337775,5.838312 -6.021319,0.0112 c 0,0 -0.26869,-0.55894 -0.398869,-0.8531 0.10478,-0.27352 0.1645,-0.56849 0.1645,-0.87839 0,-1.36197 -1.10831,-2.47056 -2.47057,-2.47056 -0.23476,0 -0.46136,0.035 -0.67655,0.0964 L 4.515746,15.840217 4.038976,5.117369 H 7.199475 V 4.411494 H 3.317166 c 0,-0.389333 0.31654,-0.705876 0.70587,-0.705876 h 11.294008 c 0.38933,0 0.70588,0.316543 0.70588,0.705876 H 7.199475 v 0.705875 h 8.101839 L 15.16251,8.2852398 c -0.006,0.1890787 0.0953,0.3125187 0.34552,0.3292087 0.26693,0 0.35456,-0.13781 0.36568,-0.3102087 z M 7.552655,18.528687 c 0,0.9731 -0.79159,1.76469 -1.764689,1.76469 -0.9731,0 -1.76469,-0.79159 -1.76469,-1.76469 0,-0.9731 0.79159,-1.76469 1.76469,-1.76469 0.973099,0 1.764689,0.79159 1.764689,1.76469 z m -1.764689,1.05869 c 0.58378,0 1.05881,-0.47504 1.05881,-1.05881 0,-0.58378 -0.47503,-1.05882 -1.05881,-1.05882 -0.58378,0 -1.05881,0.47504 -1.05881,1.05882 0,0.58377 0.47503,1.05881 1.05881,1.05881 z m 0,-1.41175 c 0.19443,0 0.35294,0.15819 0.35294,0.35294 0,0.19474 -0.15851,0.35293 -0.35294,0.35293 -0.19443,0 -0.35294,-0.15819 -0.35294,-0.35293 0,-0.19475 0.15851,-0.35294 0.35294,-0.35294 z"
     sodipodi:nodetypes="cssscccccsscccccccccccccccccccssccccccccccscccccccssscccccssscccccsccccccsssscccccccssccccccccccccccccccssccccccsssccssccccscccccccsscscccccccccccccccccssssssssssssssssssssssssssssssccsssccsssccccsscccccccccccssccccccssccccccccsssssssssssssss" />
</svg>
