<?xml version="1.0" encoding="UTF-8" standalone="no"?>
<svg
   width="24"
   height="24"
   version="1.1"
   viewBox="0 0 24 24"
   sodipodi:docname="bin-recycle-out.svg"
   id="svg826"
   inkscape:version="1.1.2 (b8e25be8, 2022-02-05)"
   xmlns:inkscape="http://www.inkscape.org/namespaces/inkscape"
   xmlns:sodipodi="http://sodipodi.sourceforge.net/DTD/sodipodi-0.dtd"
   xmlns="http://www.w3.org/2000/svg"
   xmlns:svg="http://www.w3.org/2000/svg">
  <defs
     id="defs830" />
  <sodipodi:namedview
     id="namedview828"
     pagecolor="#ffffff"
     bordercolor="#666666"
     borderopacity="1.0"
     inkscape:pageshadow="2"
     inkscape:pageopacity="0.0"
     inkscape:pagecheckerboard="0"
     showgrid="false"
     inkscape:zoom="20.222025"
     inkscape:cx="12.387483"
     inkscape:cy="18.420509"
     inkscape:window-width="1796"
     inkscape:window-height="969"
     inkscape:window-x="44"
     inkscape:window-y="25"
     inkscape:window-maximized="0"
     inkscape:current-layer="svg826" />
  <path
     id="path1794"
     style="color:#000000;fill:#000000;-inkscape-stroke:none"
     d="m 5.2840124,2.7247237 c -0.92777,0 -1.6875,0.757773 -1.6875,1.685546 v 0.353516 c 0,0.343912 0.28555,0.628906 0.62891,0.628906 h 0.10351 l 0.47656,10.6933553 v 0.002 c 0.0106,0.22087 0.13675,0.42115 0.33399,0.52539 l 0.0234,0.0117 c -0.50161,0.49718 -0.85938,1.14405 -0.85938,1.90429 0,1.51129 1.2325501,2.7461 2.7441401,2.7461 0.68035,0 1.27002,-0.29292 1.75,-0.70508 l 0.14649,0.33203 c 0.10064,0.22603 0.32816,0.37358 0.5761697,0.37305 l 6.4394498,-0.0137 0.0234,-0.006 c 0.30713,-0.0552 0.5284,-0.17604 0.65429,-0.34961 0.1259,-0.17357 0.13965,-0.35368 0.15625,-0.46094 l 0.002,-0.0137 0.41992,-7.80469 v -0.006 c 0.003,-0.14696 -0.024,-0.30953 -0.13477,-0.44336 -0.11081,-0.13383 -0.28648,-0.19875 -0.46289,-0.20898 l -0.002,-0.002 h -0.004 c -0.18562,-0.007 -0.3703,0.0623 -0.48632,0.18946 -0.11603,0.12718 -0.1609,0.28498 -0.16993,0.43359 l -0.4414,7.38477 -5.5859398,0.01 c -0.0627,-0.13106 -0.18161,-0.38355 -0.28906,-0.62109 0.0864,-0.26479 0.15429,-0.53919 0.15429,-0.83399 0,-1.51129 -1.2344997,-2.74609 -2.7460897,-2.74609 -0.21722,0 -0.42205,0.042 -0.62305,0.0898 l -0.38086,-0.20312 -0.45507,-10.2773453 h 2.5957 0.55078 7.5390595 l -0.14257,3.6464861 c -0.005,0.14552 0.0369,0.3127498 0.15429,0.4316399 0.11736,0.11889 0.27966,0.17046 0.44727,0.18164 h 0.01 0.008 c 0.18083,0 0.35406,-0.0527 0.47265,-0.16992 0.1186,-0.1172101 0.15973,-0.2686399 0.16797,-0.3964899 l -0.43945,-0.0156 0.43945,0.008 v -0.01 -0.002 l 0.14258,-3.6738261 h 0.10351 c 0.34348,0 0.62696,-0.285436 0.62696,-0.628906 v -0.353516 c 0,-0.927773 -0.75973,-1.685546 -1.6875,-1.685546 -3.76466,3.5e-5 -7.5283095,-6.5e-5 -11.2929696,0 z m 0,0.550781 c 3.7646501,-6.5e-5 7.5282996,3.5e-5 11.2929696,0 0.62926,0 1.13672,0.505501 1.13672,1.134765 v 0.353516 c 0,0.04696 -0.0292,0.07813 -0.0762,0.07813 h -0.63281 l -0.16211,4.2070321 c -5.1e-4,0.008 7.4e-4,0.002 0,0.008 -0.003,0.0251 -0.0102,0.0394 -0.006,0.0351 0.005,-0.005 -0.01,0.008 -0.0801,0.01 -0.0543,-0.007 -0.083,-0.0225 -0.0781,-0.0176 0.005,0.005 0.001,0.008 0.002,-0.0254 v -0.002 l 0.16797,-4.2148421 H 8.7350725 v -0.154297 h 8.8242195 v -0.27539 c 0,-0.538529 -0.4439,-0.982422 -0.98242,-0.982422 H 5.2839024 c -0.53852,0 -0.98242,0.443898 -0.98242,0.982422 v 0.27539 h 3.8828101 v 0.154297 H 5.0124124 l 0.4961001,11.1679613 0.83203,0.43946 0.10742,-0.0293 c 0.1927,-0.055 0.39221,-0.0859 0.59961,-0.0859 1.21293,0 2.19531,0.98267 2.19531,2.19531 0,0.27455 -0.0529,0.5349 -0.14648,0.77931 l -0.0391,0.10547 0.0449,0.10351 c 0.13468,0.30433 0.4023397,0.86132 0.4023397,0.86132 l 0.0762,0.15625 6.4531298,-0.0117 0.47266,-7.90039 c 0.004,-0.0624 0.0213,-0.0912 0.0254,-0.0957 0.004,-0.004 0.009,-0.0102 0.0547,-0.01 0.0784,0.005 0.0745,0.0168 0.0703,0.0117 -0.004,-0.005 0.009,0.0108 0.008,0.0801 l -0.41797,7.76368 c -0.0172,0.1085 -0.0313,0.17399 -0.0566,0.20899 -0.0261,0.036 -0.0884,0.0892 -0.29688,0.1289 l -6.3749998,0.0137 c -0.0309,6e-5 -0.0572,-0.0173 -0.0703,-0.0469 l -0.4609397,-1.03711 -0.2832,0.32617 c -0.40381,0.46402 -0.99483,0.75782 -1.65625,0.75782 -1.21293,0 -2.1953101,-0.98267 -2.1953101,-2.19532 0,-0.72618 0.3564,-1.36705 0.9003901,-1.76757 l 0.35351,-0.25977 -0.70898,-0.375 c -0.0241,-0.0127 -0.041,-0.0357 -0.043,-0.0644 v -0.002 L 4.8563524,4.8420457 h -0.63085 c -0.0461,0 -0.0781,-0.0316 -0.0781,-0.07813 v -0.353516 c 0,-0.629264 0.50745,-1.134765 1.13672,-1.134765 z m 0,0.705078 H 16.576982 c 0.0869,0 0.089,0.113008 0.15625,0.15625 H 8.7351825 8.1844025 5.1277624 c 0.0672,-0.04324 0.0693,-0.15625 0.15625,-0.15625 z m 6.3574196,3.0839851 -1.06055,0.70703 c -0.28511,0.19081 -0.364,0.58523 -0.17382,0.87109 l 0.70703,1.0585999 c 0.12035,0.18015 0.32094,0.2793 0.52343,0.2793 0.12016,0 0.2422,-0.0359 0.34766,-0.10547 0.16322,-0.10903 0.0832,-0.3141 0.0996,-0.4980501 0.58943,0.3931501 1.04102,0.9782004 1.04102,1.7402294 0,0.34347 0.28543,0.62696 0.6289,0.62696 0.34347,0 0.62891,-0.28349 0.62891,-0.62696 0,-1.3731793 -0.87649,-2.4621792 -2.04297,-3.0156192 0.27914,-0.19258 0.36083,-0.58006 0.17187,-0.86328 -0.19052,-0.28648 -0.58523,-0.36401 -0.87109,-0.17383 z m 0.30469,0.45898 c 0.0391,-0.026 0.0821,-0.0186 0.10742,0.0195 v 0.002 c 0.0261,0.0391 0.0176,0.0813 -0.0215,0.10742 l -0.40039,0.26758 -0.0274,0.10351 -0.0625,0.25196 0.24805,0.0781 c 1.18054,0.36704 2.04297,1.4617899 2.04297,2.7636692 0,0.047 -0.0312,0.0781 -0.0781,0.0781 -0.047,0 -0.0781,-0.0312 -0.0781,-0.0781 0,-1.2273993 -0.8109,-2.2720492 -1.92774,-2.6210892 l -0.74414,-0.23047 0.69727,1.0429698 c 0.0261,0.0391 0.0176,0.0813 -0.0215,0.1074201 -0.0152,0.01 -0.0289,0.0137 -0.043,0.0137 -0.0253,0 -0.0506,-0.0114 -0.0664,-0.0352 l -0.70508,-1.0585999 c -0.026,-0.039 -0.0173,-0.0814 0.0215,-0.10742 z m -2.7421895,0.60352 c -1.06453,0.61505 -1.72461,1.7605599 -1.72461,2.9902292 0,0.1091 0.0264,0.21293 0.0371,0.32032 -0.2807,-0.0712 -0.60169,-0.021 -0.73437,0.24804 -0.15257,0.30818 -0.0248,0.68931 0.2832,0.8418 h 0.002 l 1.14063,0.56445 c 0.0885,0.0432 0.18427,0.0645 0.27734,0.0645 0.2317,0 0.45632,-0.12972 0.56445,-0.34961 l 0.5624997,-1.14063 c 0.15256,-0.30817 0.0247,-0.68931 -0.2831997,-0.84179 h -0.002 c -0.20723,-0.10195 -0.3832,0.0708 -0.56446,0.1914 0.0368,-0.740259 0.42516,-1.4284193 1.0703197,-1.8007792 0.2981898,-0.17178 0.4021198,-0.55998 0.2304698,-0.85742 -0.1714398,-0.29665 -0.5598598,-0.40217 -0.8574295,-0.23047 z m -2.42187,3.5585892 -0.0977,0.19922 0.17187,0.13867 z M 9.4812722,8.6036278 c 0.0397,-0.0231 0.0819,-0.0115 0.10547,0.0293 0.0231,0.04 0.0107,0.0825 -0.0293,0.10547 -0.8475097,0.48914 -1.3730497,1.3999602 -1.3730497,2.3788992 0,0.20618 0.0268,0.40544 0.0703,0.59766 l 0.17188,0.75781 0.55273,-1.11914 c 0.0205,-0.0415 0.0622,-0.0565 0.10547,-0.0352 0.0415,0.0206 0.0556,0.0622 0.0352,0.10351 l -0.56446,1.14063 c -0.0145,0.0294 -0.0414,0.043 -0.0703,0.043 -0.0115,0 -0.0216,-0.002 -0.0332,-0.008 h -0.002 l -1.13867,-0.5625 c -0.0415,-0.0206 -0.0575,-0.0642 -0.0371,-0.10547 h 0.002 c 0.0203,-0.0411 0.0615,-0.0558 0.10351,-0.0352 l 0.85547,0.42383 -0.13086,-0.56641 c -0.0481,-0.20775 -0.0742,-0.42049 -0.0742,-0.63477 0,-1.032769 0.55699,-1.9975292 1.4511697,-2.5136692 z m 8.9765698,0.35547 c -0.14751,0.0181 -0.2826,0.0865 -0.40235,0.1875 l -0.006,0.006 -0.008,0.008 c -0.26915,0.2601599 -0.27136,0.6528499 -0.004,0.8574202 l -0.0195,-0.0156 0.19727,0.18164 h -2.67188 c -0.15438,0 -0.31075,0.0487 -0.43164,0.15625 -0.12088,0.107539 -0.19336,0.274139 -0.19336,0.443359 1e-5,0.1786 0.0668,0.35435 0.19141,0.47266 0.1246,0.1183 0.29176,0.17187 0.45508,0.17187 h 2.64648 l -0.18945,0.17188 -0.002,0.002 c -0.25774,0.24596 -0.22311,0.63279 0.0215,0.86719 l 0.008,0.008 0.01,0.008 c 0.25808,0.21117 0.60988,0.22181 0.83594,0.0547 l 0.0117,-0.01 1.23828,-1.14843 c 0.16575,-0.15347 0.26489,-0.3693 0.25781,-0.58789 -0.007,-0.2186 -0.11507,-0.425809 -0.28711,-0.587899 l -0.002,-0.002 -1.23047,-1.1132802 -0.002,-0.002 c -0.11459,-0.10313 -0.27632,-0.14698 -0.42383,-0.12891 z m -5.1211,2.9433592 -1.27148,0.082 c -0.34278,0.0226 -0.60793,0.32307 -0.58594,0.66602 0.0116,0.18265 0.21822,0.20254 0.34961,0.30859 -0.29372,0.14438 -0.56202,0.35352 -0.89844,0.35352 -0.38865,0 -0.76764,-0.10206 -1.0956998,-0.29297 -0.29655,-0.1725 -0.6842997,-0.0711 -0.8574197,0.22656 -0.17314,0.29725 -0.0707,0.68654 0.22656,0.85938 l 0.0644,0.0371 h 0.0742 c 0.4902797,0.25759 1.0274695,0.42579 1.5878895,0.42579 0.71376,0 1.33135,-0.3523 1.89844,-0.74805 l 0.002,0.0176 c 0.0212,0.32971 0.29962,0.58789 0.62696,0.58789 0.0154,0 0.0268,3.5e-4 0.0352,0 h 0.002 0.004 c 0.34278,-0.0226 0.60792,-0.32504 0.58594,-0.66797 l -0.082,-1.26953 c -0.0219,-0.34677 -0.32515,-0.60411 -0.66406,-0.58594 z m 0.0312,0.54883 c 0.043,-0.002 0.0833,0.0302 0.0859,0.0723 l 0.082,1.26954 c 0.003,0.0453 -0.0281,0.081 -0.0742,0.084 -9.3e-4,3e-5 -0.004,0 -0.004,0 -0.041,0 -0.0753,-0.0305 -0.0781,-0.0742 l -0.0605,-0.95312 -0.42579,0.39257 c -0.52824,0.48952 -1.22635,0.77539 -1.96289,0.77539 -0.51312,0 -1.0151898,-0.13509 -1.4511698,-0.38867 -0.0393,-0.0229 -0.0506,-0.0655 -0.0273,-0.10547 0.0232,-0.0399 0.0661,-0.0502 0.10547,-0.0273 0.4138,0.24081 0.8884998,0.36719 1.3730398,0.36719 0.62591,0 1.19026,-0.27763 1.66602,-0.6543 l 0.0195,-0.002 -0.002,-0.006 c 0.0482,-0.0387 0.12428,-0.0244 0.16992,-0.0664 l 0.57422,-0.52734 -1.24414,0.0801 c -0.0413,0.002 -0.0833,-0.0314 -0.0859,-0.0723 -0.003,-0.0453 0.0281,-0.079 0.0742,-0.082 z m -6.3203095,4.03711 c -1.12237,0 -2.0390601,0.91864 -2.0390601,2.04101 0,1.12237 0.9166901,2.03907 2.0390601,2.03907 1.12237,0 2.04102,-0.9167 2.04102,-2.03907 0,-1.12237 -0.91865,-2.04101 -2.04102,-2.04101 z m 0,0.55078 c 0.82383,0 1.49024,0.66641 1.49024,1.49023 0,0.82383 -0.66641,1.48828 -1.49024,1.48828 -0.82383,0 -1.48828,-0.66445 -1.48828,-1.48828 0,-0.82382 0.66445,-1.49023 1.48828,-1.49023 z m 0,0.15625 c -0.7331,0 -1.33398,0.60089 -1.33398,1.33398 0,0.73309 0.60088,1.33399 1.33398,1.33399 0.7331,0 1.33594,-0.6009 1.33594,-1.33399 0,-0.73309 -0.60284,-1.33398 -1.33594,-1.33398 z m 0,0.54883 c 0.43446,0 0.78516,0.35069 0.78516,0.78515 0,0.43445 -0.3507,0.78321 -0.78516,0.78321 -0.43446,0 -0.7832,-0.34876 -0.7832,-0.78321 0,-0.43446 0.34874,-0.78515 0.7832,-0.78515 z m 0,0.15625 c -0.34373,0 -0.62695,0.2848 -0.62695,0.6289 0,0.3441 0.28322,0.62696 0.62695,0.62696 0.34373,0 0.62891,-0.28286 0.62891,-0.62696 0,-0.3441 -0.28518,-0.6289 -0.62891,-0.6289 z m 0,0.55078 c 0.0451,0 0.0781,0.0327 0.0781,0.0781 0,0.0454 -0.033,0.0762 -0.0781,0.0762 -0.0451,0 -0.0762,-0.0308 -0.0762,-0.0762 0,-0.0454 0.031,-0.0781 0.0762,-0.0781 z M 17.117012,9.0674978 17.268672,5.1170757 h 0.36806 c 0.19522,0 0.35294,-0.157721 0.35294,-0.352938 v -0.352938 c 0,-0.77852 -0.63323,-1.411751 -1.41175,-1.411751 -3.76467,3.5e-5 -7.5293295,-5.2e-5 -11.2939896,1.3e-5 -0.77852,0 -1.41175,0.63323 -1.41175,1.41175 v 0.352938 c 0,0.195217 0.15819,0.352938 0.35294,0.352938 h 0.36806 l 0.48701,10.9567993 c 0.006,0.12526 0.0769,0.23823 0.18782,0.29685 l 0.3207901,0.16937 c -0.6111701,0.44999 -1.0107701,1.17272 -1.0107701,1.98876 0,1.36197 1.1083001,2.47056 2.4705601,2.47056 0.74323,0 1.40893,-0.33135 1.86238,-0.85241 l 0.2855,0.6427 c 0.0569,0.12779 0.18325,0.21002 0.3226897,0.20972 l 6.4150898,-0.0137 c 0.52993,-0.0952 0.55278,-0.35473 0.58807,-0.58271 l 0.41801,-7.78736 c 0.005,-0.21627 -0.0833,-0.35821 -0.33805,-0.37299 -0.24878,-0.009 -0.35829,0.1534 -0.37111,0.36446 l -0.45654,7.64203 -6.0213198,0.0112 c 0,0 -0.26869,-0.55894 -0.3988697,-0.8531 0.1047797,-0.27352 0.1644997,-0.56849 0.1644997,-0.87839 0,-1.36197 -1.1083097,-2.47056 -2.4705697,-2.47056 -0.23476,0 -0.46136,0.035 -0.67655,0.0964 l -0.59543,-0.3145 L 5.2996224,5.1173687 H 8.4601225 V 4.4114937 H 4.5778124 c 0,-0.389333 0.31654,-0.705876 0.70587,-0.705876 H 16.577692 c 0.38933,0 0.70588,0.316543 0.70588,0.705876 H 8.4601225 v 0.705875 h 8.1018395 l -0.15615,3.9310991 c -0.006,0.1890798 0.0953,0.3125198 0.34552,0.3292098 0.26693,0 0.35456,-0.13781 0.36568,-0.3102098 z M 8.8133025,18.528687 c 0,0.9731 -0.79159,1.76469 -1.76469,1.76469 -0.9731,0 -1.7646901,-0.79159 -1.7646901,-1.76469 0,-0.9731 0.7915901,-1.76469 1.7646901,-1.76469 0.9731,0 1.76469,0.79159 1.76469,1.76469 z m -1.76469,1.05869 c 0.58378,0 1.05881,-0.47504 1.05881,-1.05881 0,-0.58378 -0.47503,-1.05882 -1.05881,-1.05882 -0.58378,0 -1.05881,0.47504 -1.05881,1.05882 0,0.58377 0.47503,1.05881 1.05881,1.05881 z m 0,-1.41175 c 0.19443,0 0.35294,0.15819 0.35294,0.35294 0,0.19474 -0.15851,0.35293 -0.35294,0.35293 -0.19443,0 -0.35294,-0.15819 -0.35294,-0.35293 0,-0.19475 0.15851,-0.35294 0.35294,-0.35294 z m 4.8233495,-10.0855492 0.31339,-0.20893 c 0.16228,-0.1084 0.20609,-0.32709 0.0977,-0.48955 -0.10793,-0.16229 -0.3271,-0.20578 -0.48956,-0.0977 l -1.05881,0.70588 c -0.16197,0.1084 -0.20578,0.32709 -0.0977,0.48955 l 0.70587,1.0588099 c 0.0681,0.10194 0.18041,0.15693 0.29433,0.15693 0.0671,0 0.13519,-0.0194 0.19554,-0.0592 0.16228,-0.1084 0.20609,-0.3271001 0.0977,-0.4895599 l -0.26438,-0.39642 c 1.00427,0.31386 1.73552,1.2508902 1.73552,2.3569792 0,0.19522 0.15772,0.35294 0.35294,0.35294 0.19522,0 0.35294,-0.15772 0.35294,-0.35294 0,-1.4234093 -0.94269,-2.6248092 -2.23549,-3.0267492 z M 9.3417025,13.867767 c 0.4786597,0.27841 1.0280695,0.42558 1.5893095,0.42558 0.8078,0 1.57261,-0.3137 2.15037,-0.8491 l 0.0244,0.37689 c 0.012,0.18671 0.16764,0.3304 0.35183,0.3304 0.007,0 0.0156,-3.2e-4 0.023,-6.3e-4 0.19443,-0.0128 0.34206,-0.18072 0.32962,-0.37484 l -0.0819,-1.26993 c -0.0123,-0.19443 -0.18388,-0.33986 -0.37484,-0.32962 l -1.26993,0.0819 c -0.19443,0.0128 -0.34207,0.18073 -0.32962,0.37484 0.0123,0.19412 0.18466,0.33986 0.37484,0.32962 l 0.46874,-0.0304 c -0.4489,0.4128 -1.04115,0.65497 -1.66651,0.65497 -0.4366,0 -0.86327,-0.11407 -1.2341998,-0.32993 -0.16796,-0.0977 -0.3842897,-0.0413 -0.4824497,0.12747 -0.0982,0.16859 -0.041,0.38492 0.12731,0.48278 z m -2.31326,-2.05954 c -0.0865,0.17473 -0.0148,0.3865 0.15993,0.47302 l 1.14073,0.56405 c 0.0504,0.0246 0.10368,0.0362 0.1563,0.0362 0.13031,0 0.25525,-0.072 0.31654,-0.19664 l 0.56406,-1.14073 c 0.0865,-0.17474 0.0148,-0.3865 -0.15992,-0.47302 -0.17584,-0.0865 -0.38682,-0.0145 -0.47302,0.15992 l -0.20971,0.42385 c -0.0397,-0.17521 -0.063,-0.3553 -0.063,-0.53808 0,-0.880279 0.4733,-1.7000693 1.2352797,-2.1398492 0.16907,-0.0974 0.22658,-0.31339 0.1292,-0.48213 -0.0977,-0.16906 -0.31339,-0.22736 -0.4821297,-0.1292 -0.97972,0.56551 -1.58822,1.6197199 -1.58822,2.7511792 0,0.23619 0.0282,0.46939 0.0808,0.69644 l -0.33387,-0.16513 c -0.17505,-0.0862 -0.38681,-0.0147 -0.47302,0.16008 z"
     sodipodi:nodetypes="cssscccccsscccccccccccccccccccssccccccccccscccccccssscccccssscccccsccccccsssscccccccssccccccccccccccccccssccccccsssccssccccsccccsccsssccccccccccccsssccccscccccscccccsccccccccccccccccsccccccsccccccccscccccccccsscssccccccccccccccccccccscccccsccscccccccccccccccscccscccccccccssssssssssssssssssssssssssssssccsssccsssccccsscccccccccccssccccccssccccccccssssssssssssssscccccccscccssscccsccsccccccccscccccccscccccscccscccc" />
</svg>
