<?xml version="1.0" encoding="UTF-8" standalone="no"?>
<svg
   width="24"
   height="24"
   version="1.1"
   viewBox="0 0 24 24"
   id="svg2846"
   sodipodi:docname="bin.svg"
   inkscape:version="1.1.2 (b8e25be8, 2022-02-05)"
   xmlns:inkscape="http://www.inkscape.org/namespaces/inkscape"
   xmlns:sodipodi="http://sodipodi.sourceforge.net/DTD/sodipodi-0.dtd"
   xmlns="http://www.w3.org/2000/svg"
   xmlns:svg="http://www.w3.org/2000/svg">
  <defs
     id="defs2613" />
  <sodipodi:namedview
     id="namedview2611"
     pagecolor="#ffffff"
     bordercolor="#666666"
     borderopacity="1.0"
     inkscape:pageshadow="2"
     inkscape:pageopacity="0.0"
     inkscape:pagecheckerboard="0"
     showgrid="false"
     inkscape:zoom="29.958333"
     inkscape:cx="11.799722"
     inkscape:cy="12.400556"
     inkscape:window-width="1310"
     inkscape:window-height="969"
     inkscape:window-x="44"
     inkscape:window-y="25"
     inkscape:window-maximized="0"
     inkscape:current-layer="svg2846" />
  <path
     id="path2520"
     style="color:#000000;fill:#000000;-inkscape-stroke:none"
     d="m 6.35343,2.7246985 c -0.92777,0 -1.6875,0.757773 -1.6875,1.685546 v 0.353516 c 0,0.343912 0.28555,0.628906 0.62891,0.628906 H 5.39835 L 5.87491,16.086023 v 0.002 c 0.0106,0.22087 0.13675,0.42115 0.33399,0.52539 l 0.0234,0.0117 c -0.50161,0.49718 -0.85938,1.14405 -0.85938,1.90429 0,1.51129 1.23255,2.7461 2.74414,2.7461 0.68035,0 1.27002,-0.29292 1.75,-0.70508 l 0.14649,0.33203 c 0.10064,0.22603 0.32816,0.37358 0.57617,0.37305 l 6.43945,-0.0137 0.0234,-0.006 c 0.30713,-0.0552 0.52644,-0.17604 0.65234,-0.34961 0.1259,-0.17357 0.1416,-0.35368 0.1582,-0.46094 l 0.002,-0.0137 0.5,-9.7461 0.006,-0.13476 0.006,-0.12696 0.0156,-0.28906 h -0.002 l 0.21094,-4.7421865 h 0.10546 c 0.34348,0 0.62696,-0.285436 0.62696,-0.628906 v -0.353516 c 0,-0.927773 -0.75973,-1.685546 -1.6875,-1.685546 -3.76466,3.5e-5 -7.52831,-6.5e-5 -11.29297,0 z m 0,0.550781 c 3.76465,-6.5e-5 7.5283,3.5e-5 11.29297,0 0.62926,0 1.13672,0.505501 1.13672,1.134765 v 0.353516 c 0,0.04696 -0.0292,0.07813 -0.0762,0.07813 h -0.63281 l -0.23437,5.2929725 -0.1543,0.002 0.23438,-5.2949325 H 9.80458 v -0.154297 h 8.82422 v -0.27539 c 0,-0.538529 -0.4439,-0.982422 -0.98242,-0.982422 H 6.35341 c -0.53852,0 -0.98242,0.443898 -0.98242,0.982422 v 0.27539 H 9.2538 v 0.154297 H 6.08192 l 0.4961,11.1679725 0.83203,0.43946 0.10742,-0.0293 c 0.1927,-0.055 0.39221,-0.0859 0.59961,-0.0859 1.21293,0 2.19531,0.98267 2.19531,2.19531 0,0.27454 -0.0529,0.53489 -0.14648,0.7793 l -0.0391,0.10547 0.0449,0.10351 c 0.13468,0.30434 0.40234,0.86133 0.40234,0.86133 l 0.0762,0.15625 6.45313,-0.0117 0.55273,-9.83594 0.15625,-0.002 -0.49609,9.6875 c -0.0172,0.1085 -0.0313,0.17399 -0.0566,0.20899 -0.0261,0.036 -0.0884,0.0892 -0.29688,0.1289 l -6.375,0.0137 c -0.0309,6e-5 -0.0572,-0.0173 -0.0703,-0.0469 l -0.46094,-1.03711 -0.2832,0.32617 c -0.40381,0.46402 -0.99483,0.75782 -1.65625,0.75782 -1.21293,0 -2.19531,-0.98267 -2.19531,-2.19532 0,-0.72618 0.3564,-1.36705 0.90039,-1.76757 l 0.35156,-0.25977 -0.70703,-0.375 c -0.0241,-0.0127 -0.041,-0.0357 -0.043,-0.0644 v -0.002 L 5.92566,4.8419505 H 5.29481 c -0.0461,0 -0.0781,-0.0316 -0.0781,-0.07813 v -0.353516 c 0,-0.629264 0.50745,-1.134765 1.13672,-1.134765 z m 0,0.705078 H 17.6464 c 0.0869,0 0.089,0.113008 0.15625,0.15625 H 9.8046 9.25382 6.19718 c 0.0672,-0.04324 0.0693,-0.15625 0.15625,-0.15625 z m 0.30469,1.412109 h 2.5957 0.55078 7.53711 l -0.2207,4.9921865 -0.53711,9.58985 -5.58594,0.01 c -0.0627,-0.13106 -0.18161,-0.38355 -0.28906,-0.62109 0.0864,-0.26479 0.15429,-0.53919 0.15429,-0.83399 0,-1.51129 -1.2345,-2.74609 -2.74609,-2.74609 -0.21722,0 -0.42205,0.042 -0.62305,0.0898 L 7.11319,15.670213 Z M 8.11705,16.488373 c -1.12237,0 -2.03906,0.91864 -2.03906,2.04101 0,1.12237 0.91669,2.03907 2.03906,2.03907 1.12237,0 2.04102,-0.9167 2.04102,-2.03907 0,-1.12237 -0.91865,-2.04101 -2.04102,-2.04101 z m 0,0.55078 c 0.82383,0 1.49024,0.66641 1.49024,1.49023 0,0.82383 -0.66641,1.48828 -1.49024,1.48828 -0.82383,0 -1.48828,-0.66445 -1.48828,-1.48828 0,-0.82382 0.66445,-1.49023 1.48828,-1.49023 z m 0,0.15625 c -0.7331,0 -1.33398,0.60089 -1.33398,1.33398 0,0.73309 0.60088,1.33399 1.33398,1.33399 0.7331,0 1.33399,-0.6009 1.33399,-1.33399 0,-0.73309 -0.60089,-1.33398 -1.33399,-1.33398 z m 0,0.54883 c 0.43446,0 0.78516,0.35069 0.78516,0.78515 0,0.43445 -0.3507,0.78321 -0.78516,0.78321 -0.43446,0 -0.7832,-0.34876 -0.7832,-0.78321 0,-0.43446 0.34874,-0.78515 0.7832,-0.78515 z m 0,0.15625 c -0.34373,0 -0.62695,0.2848 -0.62695,0.6289 0,0.3441 0.28322,0.62696 0.62695,0.62696 0.34373,0 0.62891,-0.28286 0.62891,-0.62696 0,-0.3441 -0.28518,-0.6289 -0.62891,-0.6289 z m 0,0.55078 c 0.0451,0 0.0781,0.0327 0.0781,0.0781 0,0.0454 -0.033,0.0762 -0.0781,0.0762 -0.0451,0 -0.0762,-0.0308 -0.0762,-0.0762 0,-0.0454 0.031,-0.0781 0.0762,-0.0781 z m 9.98556,-8.04014 0.2354,-5.2940625 h 0.36806 c 0.19522,0 0.35294,-0.157721 0.35294,-0.352938 v -0.352938 c 0,-0.77852 -0.63323,-1.411751 -1.41175,-1.411751 -3.76467,3.5e-5 -7.52933,-5.2e-5 -11.29399,1.3e-5 -0.77852,0 -1.41175,0.63323 -1.41175,1.41175 v 0.352938 c 0,0.195217 0.15819,0.352938 0.35294,0.352938 H 5.66252 L 6.14953,16.073873 c 0.006,0.12526 0.0769,0.23823 0.18782,0.29685 l 0.32079,0.16937 c -0.61117,0.44999 -1.01077,1.17272 -1.01077,1.98876 0,1.36197 1.1083,2.47056 2.47056,2.47056 0.74323,0 1.40893,-0.33135 1.86238,-0.85241 l 0.2855,0.6427 c 0.0569,0.12779 0.18325,0.21002 0.32269,0.20972 l 6.41509,-0.0137 c 0.52993,-0.0952 0.55278,-0.35473 0.58807,-0.58271 l 0.51095,-9.99187 -0.70671,3.3e-4 -0.55193,9.83768 -6.02132,0.0112 c 0,0 -0.26869,-0.55894 -0.39887,-0.8531 0.10478,-0.27352 0.1645,-0.56849 0.1645,-0.87839 0,-1.36197 -1.10831,-2.47056 -2.47057,-2.47056 -0.23476,0 -0.46136,0.035 -0.67655,0.0964 L 6.84573,15.840203 6.36896,5.1173535 h 3.1605 V 4.4114785 H 5.64715 c 0,-0.389333 0.31654,-0.705876 0.70587,-0.705876 h 11.29401 c 0.38933,0 0.70588,0.316543 0.70588,0.705876 H 9.52946 v 0.705875 h 8.10184 l -0.2354,5.2940695 z m -8.21997,8.11755 c 0,0.9731 -0.79159,1.76469 -1.76469,1.76469 -0.9731,0 -1.76469,-0.79159 -1.76469,-1.76469 0,-0.9731 0.79159,-1.76469 1.76469,-1.76469 0.9731,0 1.76469,0.79159 1.76469,1.76469 z m -1.76469,1.05869 c 0.58378,0 1.05881,-0.47504 1.05881,-1.05881 0,-0.58378 -0.47503,-1.05882 -1.05881,-1.05882 -0.58378,0 -1.05881,0.47504 -1.05881,1.05882 0,0.58377 0.47503,1.05881 1.05881,1.05881 z m 0,-1.41175 c 0.19443,0 0.35294,0.15819 0.35294,0.35294 0,0.19474 -0.15851,0.35293 -0.35294,0.35293 -0.19443,0 -0.35294,-0.15819 -0.35294,-0.35293 0,-0.19475 0.15851,-0.35294 0.35294,-0.35294 z"
     sodipodi:nodetypes="cssscccccsscccccsccccccccssscccccssscccccccsssscccccccsscccccccccccccccssccccccsssccssccccsccccccccsscccssssssssssssssssssssssssssssssccsssccsssccccssccccccccccssccccccssccccccsssssssssssssss" />
</svg>
